<?xml version="1.0" encoding="utf-8"?>
<!-- Generator: Adobe Illustrator 19.2.0, SVG Export Plug-In . SVG Version: 6.00 Build 0)  -->
<svg version="1.1" id="Layer_1" xmlns="http://www.w3.org/2000/svg" xmlns:xlink="http://www.w3.org/1999/xlink" x="0px" y="0px"
	 viewBox="0 0 1920 1080" style="enable-background:new 0 0 1920 1080;" xml:space="preserve">
<style type="text/css">
	.st0{fill:#AA6F3D;}
	.st1{fill:#774829;}
	.st2{fill:#A8C4CC;}
	.st3{fill:#FFFFFF;}
	.st4{fill:#F8C09D;}
	.st5{fill:#E6E6E6;}
	.st6{fill:#F6AE8D;}
	.st7{fill:#EF937E;}
	.st8{fill:#333333;}
	.st9{opacity:0.81;fill:#DAEEF2;}
	.st10{opacity:0.81;fill:#FFFFFF;}
	.st11{fill:none;stroke:#333333;stroke-width:3;stroke-miterlimit:10;}
	.st12{fill:none;stroke:#DAEEF2;stroke-width:10;stroke-miterlimit:10;}
	.st13{fill:#D13924;}
	.st14{fill:#E8533A;}
	.st15{fill:#CC7C40;}
	.st16{fill:#4C2A0F;}
	.st17{fill:#FC4349;}
	.st18{fill:#F2F2F2;}
	.st19{fill:none;stroke:#E6E6E6;stroke-width:1.0421;stroke-miterlimit:10;}
	.st20{fill:#DB313E;}
	.st21{fill:#00A99D;}
	.st22{fill:none;stroke:#E6E6E6;stroke-width:1.2282;stroke-miterlimit:10;}
	.st23{fill:#E2B374;}
	.st24{fill:#F9CB93;}
	.st25{fill:#12A88B;}
	.st26{fill:#137C54;}
	.st27{fill:#FFE094;}
	.st28{fill:#1A1A1A;}
	.st29{fill:none;stroke:#474747;stroke-width:2.0842;stroke-miterlimit:10;}
	.st30{fill:#E0BF77;}
	.st31{fill:none;stroke:#7C3E0B;stroke-width:5.2104;stroke-miterlimit:10;}
	.st32{fill:#965422;}
	.st33{fill:#E6E6E6;stroke:#FFFFFF;stroke-width:8.5351;stroke-linecap:round;stroke-miterlimit:10;}
	.st34{fill:#666666;}
	.st35{fill:#999999;}
</style>
<path class="st0" d="M849.7,599.8l1.9,0.5c9.3,2.6,19.5-4.9,22.7-16.8L947.9,371c3.3-11.8,1.9-24.2-7.4-26.8l-1.9-0.5
	c-13.5-3.6-36.4,8.9-60.2,84.7l-40.6,145.4C834.5,585.6,840.4,597.2,849.7,599.8z"/>
<path class="st0" d="M1101.1,458.8L1101.1,458.8c8.9,5,20.1,1.9,25.2-6.9l71.3-125.3l-32.1-18.3l-71.3,125.3
	C1089.2,442.5,1092.3,453.7,1101.1,458.8z"/>
<path class="st1" d="M976.3,624.8h-1.3c-41.6,0-75.4-34.2-75.4-75.8v-0.2h152v0.2C1051.6,590.6,1017.9,624.8,976.3,624.8z"/>
<path class="st0" d="M1006.6,350.2l-1.2,1.3c-6.4,7.3-5.7,18.4,1.5,24.8l91.3,80.7c7.3,6.4,18.4,5.7,24.8-1.5l1.2-1.3
	c6.4-7.3,5.7-18.4-1.5-24.8l-91.3-80.7C1024.1,342.3,1013,343,1006.6,350.2z"/>
<polygon class="st1" points="957,890.8 920.6,890.8 899.6,548.8 961.6,548.8 "/>
<polygon class="st1" points="994.4,890.8 1029.6,890.8 1051.6,548.8 988.6,548.8 "/>
<path class="st0" d="M946.7,341.2h57.7c26,0,47.2,21.1,47.2,47.2v160.4h-152V388.4C899.6,362.3,920.7,341.2,946.7,341.2z"/>
<rect x="944.7" y="341.2" class="st2" width="58" height="207.6"/>
<path class="st3" d="M999.4,353.6c0,13.4-10.9,24.5-24.3,24.5h0h-0.2c-13.4,0-24.5-11.1-24.5-24.5V332h49V353.6z"/>
<rect x="950.4" y="312" class="st4" width="49" height="46"/>
<path class="st5" d="M951.5,182.5c0-5.6-2.6-10.7-6.6-14c0.4-1.3,0.6-2.7,0.6-4.2c0-8.4-6.8-15.2-15.2-15.2c-5.5,0-10.4,3-13,7.4
	c-2.8-1.8-6.1-2.8-9.6-2.8c-10.1,0-18.2,8.2-18.2,18.2c0,1.9,0.3,3.7,0.8,5.3c-7,2.6-12,9.3-12,17.2c0,7.4,4.3,13.7,10.5,16.6
	c-1.6,2.4-2.5,5.3-2.5,8.4c0,8.4,6.8,15.2,15.2,15.2c7.7,0,14-5.7,15-13.1c1.5,0.3,3,0.5,4.5,0.5c11.8,0,21.4-9.6,21.4-21.4
	c0-0.8-0.1-1.6-0.1-2.4C947.7,195.2,951.5,189.3,951.5,182.5z"/>
<path class="st5" d="M1082.5,201.2c0,5.6-2.6,10.7-6.6,14c0.4,1.3,0.6,2.7,0.6,4.2c0,8.4-6.8,15.2-15.2,15.2c-5.5,0-10.4-3-13-7.4
	c-2.8,1.8-6.1,2.8-9.6,2.8c-10.1,0-18.2-8.2-18.2-18.2c0-1.9,0.3-3.7,0.8-5.3c-7-2.6-12-9.3-12-17.2c0-7.4,4.3-13.7,10.5-16.6
	c-1.6-2.4-2.5-5.3-2.5-8.4c0-8.4,6.8-15.2,15.2-15.2c7.7,0,14,5.7,15,13.1c1.5-0.3,3-0.5,4.5-0.5c11.8,0,21.4,9.6,21.4,21.4
	c0,0.8-0.1,1.6-0.1,2.4C1078.7,188.5,1082.5,194.4,1082.5,201.2z"/>
<path class="st6" d="M950.4,328c9.5,4.1,19.4,6.3,28.9,6.3c6.6,0,13.4-1.1,20.1-3.1v-15.5h-49V328z"/>
<path class="st4" d="M979.3,323.1c-31.9,0-70.3-27.9-70.3-66.9v-42.8c0-32.9,26.7-59.6,59.6-59.6h21.6c32.9,0,59.6,26.7,59.6,59.6
	v42.8C1049.9,295.3,1011.2,323.1,979.3,323.1z"/>
<circle class="st4" cx="908.7" cy="224.5" r="20"/>
<path class="st7" d="M904.6,227.3c0-3.9,3.2-7.1,7.1-7.1c1.1,0,2.1,0.2,3,0.7c-1.2-2.1-3.5-3.5-6.1-3.5c-3.9,0-7.1,3.2-7.1,7.1
	c0,2.8,1.7,5.3,4.1,6.4C905,229.8,904.6,228.6,904.6,227.3z"/>
<ellipse class="st8" cx="956.5" cy="226.9" rx="4.6" ry="8.1"/>
<ellipse class="st8" cx="1014.6" cy="226.9" rx="4.6" ry="8.1"/>
<circle class="st4" cx="1051.5" cy="224.5" r="20"/>
<path class="st7" d="M1058.1,227.3c0-3.9-3.2-7.1-7.1-7.1c-1.1,0-2.1,0.2-3,0.7c1.2-2.1,3.5-3.5,6.1-3.5c3.9,0,7.1,3.2,7.1,7.1
	c0,2.8-1.7,5.3-4.1,6.4C1057.7,229.8,1058.1,228.6,1058.1,227.3z"/>
<path class="st7" d="M962.4,263.4c0,12.5,10.1,22.6,22.6,22.6h0c12.5,0,22.6-10.1,22.6-22.6"/>
<path class="st5" d="M1011.5,274.7h-54c-2.3,0-3.5-2.8-1.9-4.4l13.2-14.1c1.7-1.8,4-2.8,6.4-2.8h18.6c2.4,0,4.7,1,6.4,2.8l13.2,14.1
	C1015,271.9,1013.8,274.7,1011.5,274.7z"/>
<path class="st7" d="M978.5,234.3v20.5c0,0.9,1.1,1.6,2.1,1.6h12.1c3.3,0,5.1-3.8,3-6.4l-14-16.9C980.7,232,978.5,232.7,978.5,234.3
	z"/>
<circle class="st9" cx="968.8" cy="244.5" r="10.7"/>
<g>
	<path class="st10" d="M973.2,234.8c-1.3-0.6-2.8-0.9-4.4-0.9c-5.9,0-10.7,4.8-10.7,10.7c0,2.7,1,5.2,2.7,7.1
		C964.8,246.1,970.1,238.8,973.2,234.8z"/>
	<path class="st10" d="M968.5,255.2c0.1,0,0.2,0,0.3,0c5.9,0,10.7-4.8,10.7-10.7c0-1.2-0.2-2.3-0.5-3.3L968.5,255.2z"/>
</g>
<circle class="st9" cx="1004.8" cy="244.5" r="10.7"/>
<g>
	<path class="st10" d="M1009.2,234.8c-1.3-0.6-2.8-0.9-4.4-0.9c-5.9,0-10.7,4.8-10.7,10.7c0,2.7,1,5.2,2.7,7.1
		C1000.8,246.1,1006.1,238.8,1009.2,234.8z"/>
	<path class="st10" d="M1004.5,255.2c0.1,0,0.2,0,0.3,0c5.9,0,10.7-4.8,10.7-10.7c0-1.2-0.2-2.3-0.5-3.3L1004.5,255.2z"/>
</g>
<circle class="st11" cx="968.8" cy="244.5" r="10.7"/>
<circle class="st11" cx="1004.8" cy="244.5" r="10.7"/>
<path class="st11" d="M977.6,238.4c0,0,3.3-6.7,9.2-6.7s9.2,6.7,9.2,6.7"/>
<path class="st12" d="M942.6,214.4c0,0,6.9-4.2,13.9-4.2c7,0,12,2.7,12,2.7"/>
<path class="st12" d="M1027.5,214.4c0,0-6.9-4.2-13.9-4.2c-7,0-12,2.7-12,2.7"/>
<g>
	<path class="st13" d="M972.2,358.2l-17.6,5.7c-2.5,0.8-5.1-1-5.1-3.7v-12c0-2.6,2.6-4.5,5.1-3.7l17.6,5.7V358.2z"/>
	<path class="st13" d="M978.2,358.2l17.6,5.7c2.5,0.8,5.1-1,5.1-3.7v-12c0-2.6-2.6-4.5-5.1-3.7l-17.6,5.7V358.2z"/>
	<path class="st14" d="M977.9,360.1h-6c-1.7,0-3.1-1.4-3.1-3.1v-5.6c0-1.7,1.4-3.1,3.1-3.1h6c1.7,0,3.1,1.4,3.1,3.1v5.6
		C981,358.7,979.6,360.1,977.9,360.1z"/>
</g>
<path class="st15" d="M945,341.2l-14.4,1.8L907.3,391l18.5-3l-19.2,16.6c0,0,4.5,5.5,19.2,31.5c14.7,26,19.2,40.9,19.2,40.9V341.2z"
	/>
<rect x="899.6" y="532.9" class="st0" width="45.2" height="59.5"/>
<path class="st15" d="M1003,341.2l14.2,1.8l23.2,48.1l-18.6-3l19.2,16.6c0,0-4.3,5.5-19,31.5c-14.7,26-19,40.9-19,40.9V341.2z"/>
<path class="st16" d="M994.4,890.5l-4.6,37.9c-0.3,2.2,1.4,4.1,3.6,4.1h15.9c2,0,3.7-1.6,3.7-3.7v-3.6c0,0,15.1,7.3,22.3,7.3
	c7.2,0,22.2-0.3,31.9-0.3c6.4,0,14.4-2.2,19-3.7c2.2-0.7,3.5-3,3-5.3l-1.7-7.1c-1.4-5.9-7.3-9.6-13.2-8.3l0,0
	c-3.9,0.9-8,0.4-11.6-1.4l-33.1-16.1H994.4z"/>
<path class="st16" d="M957,890.5l4.6,37.9c0.3,2.2-1.4,4.1-3.6,4.1H942c-2,0-3.7-1.6-3.7-3.7v-3.6c0,0-15.1,7.3-22.3,7.3
	s-22.2-0.3-31.9-0.3c-6.4,0-14.4-2.2-19-3.7c-2.2-0.7-3.5-3-3-5.3l1.7-7.1c1.4-5.9,7.3-9.6,13.2-8.3l0,0c3.9,0.9,8,0.4,11.6-1.4
	l33.1-16.1H957z"/>
<rect x="1002.8" y="533.6" class="st0" width="48.8" height="59.5"/>
<g>
	<path class="st4" d="M1176.5,351.9l13.8,1c2.9,0.2,5.3-1.5,5.5-3.9l2.8-37.3c0.3-4.4-4.7-8.4-11.2-8.9l-16-1.2
		c-6.9-0.5-12.8,2.9-13.2,7.6l-2,26.6C1155.6,343.7,1164.7,351,1176.5,351.9z"/>
	<g>
		<path class="st3" d="M1179.7,389.2L1179.7,389.2c-6.8,0-12.3-5.5-12.3-12.3v-92.5h24.6v92.5C1192,383.7,1186.5,389.2,1179.7,389.2
			z"/>
		<path class="st17" d="M1179.7,381.8L1179.7,381.8c-3.8,0-6.9-3.1-6.9-6.9v-45.2h13.8v45.2C1186.6,378.7,1183.5,381.8,1179.7,381.8
			z"/>
		<path class="st3" d="M1192.6,286.3h-25.7c-2,0-3.6-1.6-3.6-3.6l0,0c0-2,1.6-3.6,3.6-3.6h25.7c2,0,3.6,1.6,3.6,3.6l0,0
			C1196.1,284.7,1194.5,286.3,1192.6,286.3z"/>
		<rect x="1167.4" y="286.3" class="st18" width="24.6" height="4.8"/>
		<line class="st19" x1="1171.6" y1="296.5" x2="1181.7" y2="296.5"/>
		<line class="st19" x1="1171.6" y1="301.3" x2="1181.7" y2="301.3"/>
		<line class="st19" x1="1171.6" y1="306.1" x2="1181.7" y2="306.1"/>
		<line class="st19" x1="1171.6" y1="310.8" x2="1181.7" y2="310.8"/>
		<line class="st19" x1="1171.6" y1="315.6" x2="1181.7" y2="315.6"/>
		<circle class="st20" cx="1181.5" cy="361.8" r="1.8"/>
		<circle class="st20" cx="1182.5" cy="371.2" r="0.9"/>
		<circle class="st20" cx="1178.2" cy="367.5" r="1.5"/>
	</g>
	<path class="st6" d="M1179.2,321.9l0,0.5c-0.2,3.4,2.4,6.4,5.9,6.5l13.3,0.7c3.4,0.2,6.2-2.5,6.4-5.9l0-0.5
		c0.2-3.4-2.3-6.4-5.7-6.5l-13.4-0.7C1182.2,315.8,1179.4,318.4,1179.2,321.9z"/>
	<path class="st4" d="M1180.4,322.7L1180.4,322.7c-0.2,3.3,2.4,6.1,5.7,6.3l13.9,0.7c3.3,0.2,6.1-2.4,6.3-5.7l0,0
		c0.2-3.3-2.4-6.1-5.7-6.3l-13.9-0.7C1183.4,316.9,1180.6,319.4,1180.4,322.7z"/>
	<path class="st6" d="M1178.9,308.8l0,0.5c-0.2,3.4,2.4,6.4,5.9,6.5l13.3,0.7c3.4,0.2,6.2-2.5,6.4-5.9l0-0.5
		c0.2-3.4-2.3-6.4-5.7-6.5l-13.4-0.7C1182,302.8,1179.1,305.4,1178.9,308.8z"/>
	<path class="st4" d="M1180.1,309.7L1180.1,309.7c-0.2,3.3,2.4,6.1,5.7,6.3l13.9,0.7c3.3,0.2,6.1-2.4,6.3-5.7v0
		c0.2-3.3-2.4-6.1-5.7-6.3l-13.9-0.7C1183.1,303.8,1180.3,306.4,1180.1,309.7z"/>
	<path class="st6" d="M1178.5,344.2L1178.5,344.2c-0.2,3.3,2.4,6.1,5.6,6.3l12.8,0.7l0.6-11.9l-12.8-0.7
		C1181.5,338.4,1178.7,341,1178.5,344.2z"/>
	<path class="st4" d="M1179.7,345L1179.7,345c-0.2,3,2.2,5.6,5.2,5.8l12.4,0.7c3,0.2,5.6-2.2,5.8-5.2l0,0c0.2-3-2.2-5.6-5.2-5.8
		l-12.4-0.7C1182.5,339.6,1179.9,341.9,1179.7,345z"/>
	<path class="st6" d="M1177.6,333.7l0,0.6c-0.2,3.5,2.5,6.4,5.9,6.6l13.3,0.7c3.5,0.2,6.4-2.5,6.6-5.9l0-0.6
		c0.2-3.5-2.5-6.4-5.9-6.6l-13.3-0.7C1180.7,327.6,1177.7,330.3,1177.6,333.7z"/>
	<path class="st4" d="M1178.8,334.1L1178.8,334.1c-0.2,3,2.2,5.6,5.2,5.8l14.9,0.8c3,0.2,5.6-2.2,5.8-5.2l0,0c0.2-3-2.2-5.6-5.2-5.8
		l-14.9-0.8C1181.5,328.8,1179,331.1,1178.8,334.1z"/>
	<path class="st6" d="M1166.3,323.7L1166.3,323.7c1.3,0,3.4-2,3.6-4.9l0.6-17.2c0.2-4.1-2.4-7.6-5.7-7.7l0,0
		c-3.3-0.1-6.1,3.1-6.3,7.3l-0.6,17.2C1157.8,322.6,1163,323.6,1166.3,323.7z"/>
	<path class="st4" d="M1162.4,325.2L1162.4,325.2c3.3,0.1,6.1-2.5,6.2-5.8l0.7-20.2c0.1-3.3-2.5-6.1-5.8-6.2l0,0
		c-3.3-0.1-6.1,2.5-6.2,5.8l-0.7,20.2C1156.6,322.2,1159.1,325,1162.4,325.2z"/>
</g>
<g>
	<g>
		<path class="st3" d="M1001.4,560.1L972,512.6v-27c3.2,0,5.9-2.6,5.9-5.9s-2.6-5.9-5.9-5.9v0h0h-26h-0.5c-3.3,0-5.9,2.6-5.9,5.9
			s2.6,5.9,5.9,5.9h0.5v27l-29.4,47.5c-3.8,7.2,0.9,16.2,9.1,16.6c0.3,0,0.5,0,0.8,0h65.1c0.3,0,0.5,0,0.8,0
			C1000.5,576.3,1005.3,567.3,1001.4,560.1z"/>
		<path class="st21" d="M990.1,557l-10.2-15.1c-2.6,2.1-5.1,3.4-10.1,4.4c-9.2,1.8-13.3-3-19.7-8.7c-3.1-2.7-5.9-3.1-9.4-2.5
			L927.9,557c-2.8,5.3,0.7,11.9,6.7,12.2c0.2,0,0.4,0,0.6,0h47.8c0.2,0,0.4,0,0.6,0C989.4,568.8,993,562.2,990.1,557z"/>
		<circle class="st21" cx="970.3" cy="532.4" r="3.1"/>
		
			<ellipse transform="matrix(0.7071 -0.7071 0.7071 0.7071 -85.5564 838.1904)" class="st21" cx="969" cy="522.4" rx="2.1" ry="2.1"/>
		<circle class="st21" cx="962.2" cy="528.2" r="2.6"/>
		<line class="st22" x1="949.6" y1="493.9" x2="959.3" y2="493.9"/>
		<line class="st22" x1="949.6" y1="499.8" x2="959.3" y2="499.8"/>
		<line class="st22" x1="949.6" y1="505.7" x2="959.3" y2="505.7"/>
		<line class="st22" x1="949.6" y1="511.7" x2="959.3" y2="511.7"/>
		<circle class="st3" cx="964.8" cy="558.2" r="2.4"/>
		<ellipse transform="matrix(0.1992 -0.98 0.98 0.1992 237.9873 1399.5076)" class="st3" cx="975.3" cy="554.1" rx="3.3" ry="3.3"/>
		<circle class="st3" cx="978.9" cy="561.2" r="2.1"/>
		<rect x="946" y="485.6" class="st5" width="26" height="4.2"/>
	</g>
	<circle class="st3" cx="966.1" cy="462.8" r="3.8"/>
	<circle class="st3" cx="979" cy="449.9" r="2.7"/>
</g>
<path class="st23" d="M1308.9,692.7H610.1c-5.5,0-10-4.5-10-10v-96.9c0-5.5,4.5-10,10-10h698.9c5.5,0,10,4.5,10,10v96.9
	C1318.9,688.3,1314.4,692.7,1308.9,692.7z"/>
<path class="st24" d="M1318.9,600.8H600.1v-15c0-5.5,4.5-10,10-10h698.9c5.5,0,10,4.5,10,10V600.8z"/>
<g>
	<g>
		<path class="st3" d="M1213.3,560.7L1213.3,560.7c-6.8,0-12.3-5.5-12.3-12.3v-92.5h24.6v92.5
			C1225.6,555.2,1220.1,560.7,1213.3,560.7z"/>
		<path class="st17" d="M1213.3,553.2L1213.3,553.2c-3.8,0-6.9-3.1-6.9-6.9v-45.2h13.8v45.2C1220.2,550.1,1217.1,553.2,1213.3,553.2
			z"/>
		<path class="st3" d="M1226.2,457.7h-25.7c-2,0-3.6-1.6-3.6-3.6l0,0c0-2,1.6-3.6,3.6-3.6h25.7c2,0,3.6,1.6,3.6,3.6l0,0
			C1229.7,456.1,1228.1,457.7,1226.2,457.7z"/>
		<rect x="1201" y="457.7" class="st18" width="24.6" height="4.8"/>
		<line class="st19" x1="1205.2" y1="468" x2="1215.3" y2="468"/>
		<line class="st19" x1="1205.2" y1="472.7" x2="1215.3" y2="472.7"/>
		<line class="st19" x1="1205.2" y1="477.5" x2="1215.3" y2="477.5"/>
		<line class="st19" x1="1205.2" y1="482.3" x2="1215.3" y2="482.3"/>
		<line class="st19" x1="1205.2" y1="487" x2="1215.3" y2="487"/>
		<circle class="st20" cx="1215.1" cy="533.3" r="1.8"/>
		<circle class="st20" cx="1216.1" cy="542.6" r="0.9"/>
		<circle class="st20" cx="1211.8" cy="539" r="1.5"/>
	</g>
	<g>
		<path class="st3" d="M1251.8,560.7L1251.8,560.7c-6.8,0-12.3-5.5-12.3-12.3v-92.5h24.6v92.5
			C1264.1,555.2,1258.6,560.7,1251.8,560.7z"/>
		<path class="st25" d="M1251.8,553.2L1251.8,553.2c-3.8,0-6.9-3.1-6.9-6.9v-32.2h13.8v32.2C1258.7,550.1,1255.6,553.2,1251.8,553.2
			z"/>
		<path class="st3" d="M1264.7,457.7H1239c-2,0-3.6-1.6-3.6-3.6l0,0c0-2,1.6-3.6,3.6-3.6h25.7c2,0,3.6,1.6,3.6,3.6l0,0
			C1268.2,456.1,1266.6,457.7,1264.7,457.7z"/>
		<rect x="1239.5" y="457.7" class="st18" width="24.6" height="4.8"/>
		<line class="st19" x1="1243.7" y1="468" x2="1253.8" y2="468"/>
		<line class="st19" x1="1243.7" y1="472.7" x2="1253.8" y2="472.7"/>
		<line class="st19" x1="1243.7" y1="477.5" x2="1253.8" y2="477.5"/>
		<line class="st19" x1="1243.7" y1="482.3" x2="1253.8" y2="482.3"/>
		<line class="st19" x1="1243.7" y1="487" x2="1253.8" y2="487"/>
		
			<ellipse transform="matrix(0.7071 -0.7071 0.7071 0.7071 -21.2833 1045.8177)" class="st26" cx="1251.8" cy="548.6" rx="2" ry="2"/>
		<circle class="st26" cx="1253.3" cy="539.4" r="1.1"/>
		<circle class="st26" cx="1255.6" cy="544.3" r="0.8"/>
	</g>
	<g>
		<path class="st3" d="M1173.9,560.7L1173.9,560.7c-6.8,0-12.3-5.5-12.3-12.3v-92.5h24.6v92.5
			C1186.2,555.2,1180.7,560.7,1173.9,560.7z"/>
		<path class="st27" d="M1173.9,553.2L1173.9,553.2c-3.8,0-6.9-3.1-6.9-6.9v-25.8h13.8v25.8C1180.8,550.1,1177.7,553.2,1173.9,553.2
			z"/>
		<rect x="1161.6" y="457.7" class="st18" width="24.6" height="4.8"/>
		<line class="st19" x1="1165.8" y1="468" x2="1175.9" y2="468"/>
		<line class="st19" x1="1165.8" y1="472.7" x2="1175.9" y2="472.7"/>
		<line class="st19" x1="1165.8" y1="477.5" x2="1175.9" y2="477.5"/>
		<line class="st19" x1="1165.8" y1="482.3" x2="1175.9" y2="482.3"/>
		<line class="st19" x1="1165.8" y1="487" x2="1175.9" y2="487"/>
		<path class="st28" d="M1188,458h-28.3c-2,0-3.6-1.6-3.6-3.6v-11c0-2,1.6-3.6,3.6-3.6h28.3c2,0,3.6,1.6,3.6,3.6v11
			C1191.5,456.4,1189.9,458,1188,458z"/>
		<g>
			<line class="st29" x1="1161.2" y1="445.5" x2="1161.2" y2="457.7"/>
			<line class="st29" x1="1166.3" y1="445.5" x2="1166.3" y2="457.7"/>
			<line class="st29" x1="1171.3" y1="445.5" x2="1171.3" y2="457.7"/>
			<line class="st29" x1="1176.4" y1="445.5" x2="1176.4" y2="457.7"/>
			<line class="st29" x1="1181.5" y1="445.5" x2="1181.5" y2="457.7"/>
			<line class="st29" x1="1186.5" y1="445.5" x2="1186.5" y2="457.7"/>
		</g>
		<circle class="st30" cx="1170.3" cy="540.7" r="1"/>
		<circle class="st30" cx="1173.6" cy="546.6" r="1.4"/>
		<circle class="st30" cx="1174.1" cy="535.9" r="2.3"/>
	</g>
	<line class="st31" x1="1148.9" y1="472.5" x2="1148.9" y2="571"/>
	<line class="st31" x1="1276.5" y1="472.5" x2="1276.5" y2="571"/>
	<path class="st32" d="M1288.7,474.3h-150c-1.8,0-3.3-1.5-3.3-3.3v0c0-1.8,1.5-3.3,3.3-3.3h150c1.8,0,3.3,1.5,3.3,3.3v0
		C1292,472.9,1290.5,474.3,1288.7,474.3z"/>
	<path class="st32" d="M1292,575.8h-156.6l0,0c0-5.3,4.3-9.6,9.6-9.6h137.5C1287.7,566.2,1292,570.5,1292,575.8L1292,575.8z"/>
</g>
<rect x="654.6" y="692.7" class="st16" width="22.1" height="239.8"/>
<rect x="1243" y="692.7" class="st16" width="22.1" height="239.8"/>
<g>
	<path class="st3" d="M715.7,460.5l-34.9-10.8l27.5-88.6c0.7-2.1,2.9-3.3,5-2.6l27.3,8.5c2.1,0.7,3.3,2.9,2.6,5L715.7,460.5z"/>
	<line class="st33" x1="691.3" y1="478.2" x2="687.7" y2="489.7"/>
	<path class="st3" d="M723.2,435c27.5,1.3,49.3,23.9,49.3,51.7c0,15.7-7,29.8-18.1,39.3l12.4,19c17.2-13.6,28.3-34.7,28.3-58.3
		c0-41-33.2-74.2-74.2-74.3L723.2,435z"/>
	<path class="st8" d="M702.8,489.4l-27.3-8.5c-2.1-0.7-3.3-2.9-2.6-5l8.1-26.2l34.9,10.8l-8.1,26.2
		C707.1,488.9,704.9,490.1,702.8,489.4z"/>
	<circle class="st8" cx="720.9" cy="424.5" r="18.1"/>
	<circle class="st34" cx="720.8" cy="424.5" r="11.9"/>
	
		<rect x="722.6" y="344.5" transform="matrix(0.9551 0.2964 -0.2964 0.9551 137.6585 -200.3869)" class="st8" width="14.2" height="18.5"/>
	<path d="M740.7,347.5l-16.1-5c-1-0.3-1.6-1.4-1.3-2.5l1.9-6c0.3-1,1.4-1.6,2.5-1.3l16.1,5c1,0.3,1.6,1.4,1.3,2.5l-1.9,6
		C742.8,347.3,741.7,347.9,740.7,347.5z"/>
	<path class="st3" d="M753.9,533.2H651.5c-1.7,0-3.1-1.4-3.1-3.1v-1.6c0-1.7,1.4-3.1,3.1-3.1h102.4c1.7,0,3.1,1.4,3.1,3.1v1.6
		C757,531.8,755.6,533.2,753.9,533.2z"/>
	<path class="st8" d="M783.9,559.6h-42.5v-25.5c0-9.4,7.6-17,17-17h8.5c9.4,0,17,7.6,17,17V559.6z"/>
	<circle class="st34" cx="762.7" cy="535.7" r="11.8"/>
	<circle class="st35" cx="762.6" cy="535.7" r="7.7"/>
	<path class="st8" d="M815.2,575.8H650.2v-7.1c0-5,4.1-9.1,9.1-9.1h146.7c5,0,9.1,4.1,9.1,9.1V575.8z"/>
	<path class="st8" d="M693.8,559.6h-24.5v-10.5c0-2.1,1.7-3.9,3.9-3.9h16.7c2.1,0,3.9,1.7,3.9,3.9V559.6z"/>
</g>
</svg>
