<?xml version="1.0" encoding="utf-8"?>
<!-- Generator: Adobe Illustrator 19.2.0, SVG Export Plug-In . SVG Version: 6.00 Build 0)  -->
<svg version="1.1" id="Layer_1" xmlns="http://www.w3.org/2000/svg" xmlns:xlink="http://www.w3.org/1999/xlink" x="0px" y="0px"
	 viewBox="0 0 1920 1080" style="enable-background:new 0 0 1920 1080;" xml:space="preserve">
<style type="text/css">
	.st0{fill:#405A7F;}
	.st1{fill:#4D4D4D;}
	.st2{fill:#754C24;}
	.st3{fill:#BF844F;}
	.st4{fill:#A06D42;}
	.st5{fill:#603813;}
	.st6{fill:#8C6239;}
	.st7{fill:#333333;}
	.st8{fill:none;stroke:#8C6239;stroke-width:4.5315;stroke-linecap:round;stroke-miterlimit:10;}
</style>
<g>
	<path class="st0" d="M1049.8,506.4L1049.8,506.4c7,7.4,18.7,7.7,26.1,0.7l99.8-94.4c7.4-7,7.7-18.7,0.7-26.1l0,0
		c-7-7.4-18.7-7.7-26.1-0.7l-99.8,94.4C1043.1,487.4,1042.8,499,1049.8,506.4z"/>
	<path class="st1" d="M910.9,660.8h-1.3c-41.6,0-75.4-34.2-75.4-75.8v-0.2h152v0.2C986.2,626.6,952.5,660.8,910.9,660.8z"/>
	<path class="st0" d="M940.6,386.9L940.6,386.9c-6.7,7.6-6,19.3,1.6,26l102.9,91c7.6,6.7,19.3,6,26-1.6l0,0c6.7-7.6,6-19.3-1.6-26
		l-102.9-91C959,378.6,947.4,379.3,940.6,386.9z"/>
	<path class="st0" d="M736.7,480.5L736.7,480.5c5.4,8.6,16.8,11.2,25.5,5.7l116.1-73.5c8.6-5.4,11.2-16.8,5.7-25.5l0,0
		c-5.4-8.6-16.8-11.2-25.5-5.7L742.4,455C733.8,460.5,731.2,471.9,736.7,480.5z"/>
	<path class="st0" d="M738,458.1L738,458.1c-7.9,6.5-9,18.1-2.6,26l87.1,106.3c6.5,7.9,18.1,9,26,2.6l0,0c7.9-6.5,9-18.1,2.6-26
		l-87.1-106.3C757.5,452.8,745.9,451.6,738,458.1z"/>
	<path class="st2" d="M885.8,926.8l0,41l-80.8,0.4c0,0,3-18.4,22.9-21.9c19.8-3.6,36.6,7.8,36.6,7.8l2.1-27.3H885.8z"/>
	<rect x="855.2" y="584.8" class="st1" width="41" height="342"/>
	<path class="st2" d="M933.9,926.8l0,41l80.8,0.4c0,0-3-18.4-22.9-21.9c-19.8-3.6-36.6,7.8-36.6,7.8l-2.1-27.3H933.9z"/>
	
		<rect x="923.2" y="584.8" transform="matrix(-1 -1.224647e-16 1.224647e-16 -1 1887.3459 1511.5878)" class="st1" width="41" height="342"/>
	<path class="st0" d="M881.3,377.2H939c26,0,47.2,21.1,47.2,47.2v160.4h-152V424.4C834.2,398.3,855.3,377.2,881.3,377.2z"/>
	<g>
		<path class="st3" d="M1134.6,408.2L1134.6,408.2c3.4-1,5.3-4.6,4.2-8l-8.7-28.1c-1-3.4-4.6-5.3-8-4.2l0,0c-3.4,1-5.3,4.6-4.2,8
			l8.7,28.1C1127.6,407.3,1131.2,409.2,1134.6,408.2z"/>
		<path class="st3" d="M1162.8,430.8l7.6-7.1c3.3-3,3.4-8.2,0.4-11.4l-24-25.7c-3-3.3-8.2-3.4-11.4-0.4l-7.6,7.1
			c-3.5,3.2-3.7,8.7-0.4,12.2l23.2,24.9C1153.9,433.9,1159.3,434.1,1162.8,430.8z"/>
		<path class="st3" d="M1131.6,398.6L1131.6,398.6c2.4,2.6,6.5,2.7,9,0.3l43.5-40.5c2.6-2.4,2.7-6.5,0.3-9l0,0
			c-2.4-2.6-6.5-2.7-9-0.3l-43.5,40.5C1129.3,392,1129.2,396,1131.6,398.6z"/>
		<path class="st3" d="M1144.5,404L1144.5,404c2.4,2.6,6.5,2.7,9,0.3l21.5-20.1c2.6-2.4,2.7-6.5,0.3-9v0c-2.4-2.6-6.5-2.7-9-0.3
			l-21.5,20.1C1142.3,397.4,1142.1,401.5,1144.5,404z"/>
		<path class="st3" d="M1150.9,415.6L1150.9,415.6c2.4,2.6,6.5,2.7,9,0.3l21.5-20.1c2.6-2.4,2.7-6.5,0.3-9l0,0
			c-2.4-2.6-6.5-2.7-9-0.3l-21.5,20.1C1148.6,409,1148.5,413,1150.9,415.6z"/>
		<path class="st3" d="M1156.2,428.2L1156.2,428.2c2.4,2.6,6.5,2.7,9,0.3l21.5-20.1c2.6-2.4,2.7-6.5,0.3-9l0,0
			c-2.4-2.6-6.5-2.7-9-0.3l-21.5,20.1C1153.9,421.5,1153.8,425.6,1156.2,428.2z"/>
	</g>
	<g>
		<path class="st3" d="M830.4,589.2l-7.6,8.4l26.3,23.8c2.3,2.1,5.9,1.9,8-0.4l0,0c2.1-2.3,1.9-5.9-0.4-8L830.4,589.2z"/>
		<path class="st3" d="M838.4,580.6l-7.3,8.7l32.8,27.7c2.4,2,6,1.7,8-0.7l0,0c2-2.4,1.7-6-0.7-8L838.4,580.6z"/>
		<path class="st3" d="M848.2,575.4l-6.4,9.4l35.6,24c2.6,1.8,6.1,1.1,7.9-1.5l0,0c1.8-2.6,1.1-6.1-1.5-7.9L848.2,575.4z"/>
		<path class="st3" d="M848.1,565.8l-4.5,10.4l39.4,17c2.9,1.2,6.2-0.1,7.5-3l0,0c1.2-2.9-0.1-6.2-3-7.5L848.1,565.8z"/>
		<path class="st3" d="M842.7,559.9l0.7,11.3l25.8-1.5c3.1-0.2,5.5-2.9,5.3-6l0,0c-0.2-3.1-2.9-5.5-6-5.3L842.7,559.9z"/>
		<path class="st3" d="M849.7,561.5l7.5,5.1c1.4,0.9,1.7,2.8,0.8,4.2l-22.2,32.9c-0.9,1.4-2.8,1.7-4.2,0.8l-7.5-5.1
			c-5.2-3.5-6.6-10.5-3.1-15.7l12.9-19.1C837.5,559.4,844.5,558,849.7,561.5z"/>
	</g>
	<path class="st3" d="M934,369.6c0,13.4-10.9,24.5-24.3,24.5h0h-0.2c-13.4,0-24.5-11.1-24.5-24.5v-21.5h49V369.6z"/>
	<path class="st4" d="M885,364c9.5,4.1,19.4,6.3,28.9,6.3c6.6,0,13.4-1.1,20.1-3.1v-15.5h-49V364z"/>
	<path class="st5" d="M1036.9,240.8c0-9.9-6.3-18.4-15.2-21.5c6.1-5.6,10-13.6,10-22.6c0-15.9-12.2-29-27.8-30.4
		c1.3-3.1,2-6.5,2-10.1c0-14.9-12.1-27-27-27c-7.4,0-14,2.9-18.9,7.7c0-0.1,0-0.1,0-0.2c0-13.8-11.2-25-25-25
		c-8.8,0-16.5,4.5-21,11.4c-5.3-6.1-13.2-9.9-21.9-9.9c-13.3,0-24.5,8.9-27.9,21c-4.3-2.6-9.4-4-14.8-4c-16.1,0-29.1,13-29.1,29.1
		c0,2.2,0.2,4.3,0.7,6.3c-16.9,0.2-30.6,13.9-30.6,30.9c0,11.4,6.2,21.3,15.3,26.7c-7.1,3.8-11.9,11.3-11.9,20
		c0,9.5,5.8,17.6,14.1,21c-2.4,3.2-3.9,7.2-3.9,11.6c0,10.1,7.7,18.4,17.6,19.3c-0.9,2.3-1.4,4.8-1.4,7.4c0,11,8.9,19.9,19.9,19.9
		c7.6,0,14.2-4.3,17.5-10.5c15.1,10.5,33.5,16.7,53.4,16.7c20.1,0,38.8-6.3,54-17.1c3.2,7.2,10.4,12.2,18.8,12.2
		c11.4,0,20.7-9.2,20.7-20.7c0-2-0.3-4-0.9-5.9c0.6,0,1.2,0.1,1.8,0.1c12.9,0,23.4-10.5,23.4-23.4c0-4.7-1.4-9.1-3.8-12.8
		C1032.1,256.9,1036.9,249.4,1036.9,240.8z"/>
	<path class="st3" d="M913.7,359.8c-34.9,0-76.8-30.5-76.8-73.2v-66.2c0-34.4,27.9-62.4,62.4-62.4h29.4c34.4,0,62.4,27.9,62.4,62.4
		v66.2C990.9,329.3,948.6,359.8,913.7,359.8z"/>
	<rect x="818.7" y="215.1" class="st5" width="36.3" height="39"/>
	<circle class="st3" cx="836.5" cy="251.9" r="21.9"/>
	<path class="st6" d="M832.1,255c0-4.3,3.5-7.8,7.8-7.8c1.2,0,2.3,0.3,3.3,0.7c-1.4-2.3-3.8-3.8-6.7-3.8c-4.3,0-7.8,3.5-7.8,7.8
		c0,3.1,1.8,5.8,4.5,7C832.5,257.8,832.1,256.4,832.1,255z"/>
	<ellipse class="st7" cx="888.8" cy="254.5" rx="5" ry="8.8"/>
	<ellipse class="st7" cx="952.3" cy="254.5" rx="5" ry="8.8"/>
	<path class="st6" d="M915.7,263.6v15.9c0,0.7,0.9,1.3,1.6,1.3h9.4c2.6,0,4-3,2.3-4.9l-10.9-13C917.4,261.9,915.7,262.4,915.7,263.6
		z"/>
	<circle class="st3" cx="992.6" cy="251.9" r="21.9"/>
	<path class="st6" d="M999.9,255c0-4.3-3.5-7.8-7.8-7.8c-1.2,0-2.3,0.3-3.3,0.7c1.4-2.3,3.8-3.8,6.7-3.8c4.3,0,7.8,3.5,7.8,7.8
		c0,3.1-1.8,5.8-4.5,7C999.5,257.8,999.9,256.4,999.9,255z"/>
	<path class="st8" d="M895.2,289.6c0,13.6,11.1,24.7,24.7,24.7h0c13.6,0,24.7-11.1,24.7-24.7"/>
	<path class="st5" d="M995.1,193.4V185c0-16.8-13.6-30.4-30.4-30.4h-97.1c-16.8,0-30.4,13.6-30.4,30.4v23.3c-1,2.8-1,5.6,0,8.4
		l3.4,6.5c5.5,6,15.2,7.2,23.4,2.5c7.8-4.5,11.6-12.9,9.9-20.4l1.9-1c2.8,1.5,6,2.4,9.4,2.4c8.7,0,16.1-5.7,18.6-13.7
		c3.2,9,12.5,15.5,23.4,15.5c8.1,0,15.4-3.6,19.8-9.2c1.6,6.4,6,12.6,12.6,16.8c12.2,7.7,27.4,5.7,33.9-4.4
		C996.9,206.2,997.1,199.6,995.1,193.4z"/>
</g>
</svg>
