<?xml version="1.0" encoding="utf-8"?>
<!-- Generator: Adobe Illustrator 19.2.0, SVG Export Plug-In . SVG Version: 6.00 Build 0)  -->
<svg version="1.1" xmlns="http://www.w3.org/2000/svg" xmlns:xlink="http://www.w3.org/1999/xlink" x="0px" y="0px"
	 viewBox="0 0 1920 1080" style="enable-background:new 0 0 1920 1080;" xml:space="preserve">
<style type="text/css">
	.st0{fill:#333333;}
	.st1{fill:#808080;}
	.st2{fill:#FFFFFF;}
	.st3{fill:#4D4D4D;}
	.st4{fill:#F2F2F2;}
	.st5{fill:#F15A24;}
	.st6{fill:#F7931E;}
	.st7{fill:#FBB03B;}
	.st8{fill:#245F7F;}
	.st9{fill:#703B21;}
	.st10{fill:#F8C09D;}
	.st11{fill:#EF937E;}
	.st12{fill:#F6AE8D;}
	.st13{fill:#30333A;}
	.st14{fill:#1C1C28;}
	.st15{fill:#E6E6E6;}
	.st16{fill:#1A1A1A;}
	.st17{fill:#443833;}
	.st18{fill:#E26C60;}
</style>
<g id="Presentation">
	<g>
		<path class="st0" d="M1157.6,865h-0.8c-4.6,0-8.3-3.7-8.3-8.3V159c0-4.6,3.7-8.3,8.3-8.3h0.8c4.6,0,8.3,3.7,8.3,8.3v697.7
			C1165.9,861.3,1162.2,865,1157.6,865z"/>
		<path class="st0" d="M1153.1,848.4L1153.1,848.4c-3.9,1.8-5.7,6.4-3.9,10.3l78.7,86.8c1.8,3.9,6.4,5.7,10.3,3.9l0,0
			c3.9-1.8,5.7-6.4,3.9-10.3l-78.7-86.8C1161.6,848.4,1157,846.7,1153.1,848.4z"/>
		<path class="st0" d="M1163.3,847.2L1163.3,847.2c-3.5-2.5-8.3-1.7-10.9,1.7l-35.9,111.6c-2.5,3.5-1.7,8.3,1.7,10.9v0
			c3.5,2.5,8.3,1.7,10.9-1.7l35.9-111.6C1167.6,854.6,1166.8,849.7,1163.3,847.2z"/>
		<path class="st0" d="M1161.3,848.4L1161.3,848.4c3.9,1.8,5.7,6.4,3.9,10.3l-78.7,86.8c-1.8,3.9-6.4,5.7-10.3,3.9l0,0
			c-3.9-1.8-5.7-6.4-3.9-10.3l78.7-86.8C1152.8,848.4,1157.4,846.7,1161.3,848.4z"/>
		<rect x="816.5" y="200.2" class="st1" width="681.8" height="444.2"/>
		<rect x="832" y="208.6" class="st2" width="650.4" height="427.6"/>
		<path class="st3" d="M1505.7,652.8h-697c-4.4,0-8-3.6-8-8v-0.7c0-4.4,3.6-8,8-8h697c4.4,0,8,3.6,8,8v0.7
			C1513.6,649.2,1510.1,652.8,1505.7,652.8z"/>
		<rect x="832" y="208.6" class="st4" width="650.4" height="29.8"/>
		<circle class="st5" cx="1145.5" cy="408.3" r="156.1"/>
		<path class="st6" d="M1145.5,408.3h156.1c0,85.7-70.5,156.1-156.1,156.1s-156.1-70.5-156.1-156.1s70.5-156.1,156.1-156.1
			c42.2,0,82.6,17.1,112,47.4L1145.5,408.3z"/>
		<path class="st7" d="M1145.5,408.3l61,143.7c-19.3,8.2-40,12.4-61,12.4c-85.7,0-156.1-70.5-156.1-156.1s70.5-156.1,156.1-156.1
			c42.2,0,82.6,17.1,112,47.4L1145.5,408.3z"/>
		<path class="st8" d="M1145.5,408.3l-113.3-107.4c29.5-31.1,70.5-48.7,113.3-48.7c42.2,0,82.6,17.1,112,47.4L1145.5,408.3z"/>
		<rect x="1335.2" y="443.3" class="st8" width="30" height="19.4"/>
		<rect x="1335.2" y="477.2" class="st7" width="30" height="19.4"/>
		<rect x="1335.2" y="511.1" class="st6" width="30" height="19.4"/>
		<rect x="1335.2" y="545" class="st5" width="30" height="19.4"/>
		<rect x="1377.7" y="443.3" class="st4" width="71.2" height="19.4"/>
		<rect x="1377.7" y="477.2" class="st4" width="71.2" height="19.4"/>
		<rect x="1377.7" y="511.1" class="st4" width="71.2" height="19.4"/>
		<rect x="1377.7" y="545" class="st4" width="71.2" height="19.4"/>
		<path class="st3" d="M1505.7,208.2h-697c-4.4,0-8-3.6-8-8v-0.7c0-4.4,3.6-8,8-8h697c4.4,0,8,3.6,8,8v0.7
			C1513.6,204.7,1510.1,208.2,1505.7,208.2z"/>
	</g>
</g>
<g id="Head">
	<path class="st9" d="M484,217.3c-2.9,28.6-6,48,0.4,81.8c3.9,20.6,10,31,10,31h150c0,0,20.8-93.1,0.9-168.8l-144.6-2
		C500.6,159.3,487.7,179.8,484,217.3z"/>
	<circle class="st10" cx="642.1" cy="247.4" r="18.3"/>
	<path class="st11" d="M649.8,250c0-3.6-2.9-6.5-6.5-6.5c-1,0-1.9,0.2-2.8,0.6c1.1-1.9,3.2-3.2,5.6-3.2c3.6,0,6.5,2.9,6.5,6.5
		c0,2.6-1.5,4.8-3.7,5.9C649.5,252.3,649.8,251.2,649.8,250z"/>
	<path class="st10" d="M597.8,336.7c0,13.4-10.9,24.5-24.3,24.5h0h-0.2c-13.4,0-24.5-11.1-24.5-24.5v-24.6h49V336.7z"/>
	<path class="st12" d="M548.8,331.4c8.4,4.3,16.6,8.2,23.9,8.2c7.6,0,16.4-1.4,25.1-5.8v-16h-49V331.4z"/>
	<path class="st10" d="M575.3,329.3c-28.8,0-66-41.2-66-69.1v-74.8h139.4v74.8C648.7,289.4,623.5,329.3,575.3,329.3z"/>
	<polygon class="st9" points="517.8,230.3 505.4,230.3 505.4,212.9 518.6,210.9 	"/>
	<path class="st9" d="M616.2,186.2c0,0-24.5,22.4-63.8,26c-28,2.6-43.7,0-43.7,0s-31.2-18.4-8.1-52.8
		c35.4-52.8,100.7-36.1,115.6-23.1c0,0,12.4-8,24.9,14.5c14.9,26.7,8,66.5,8,66.5s-4.7-1.4-15.6-9
		C622,200.2,616.2,186.2,616.2,186.2z"/>
	<circle class="st10" cx="506.6" cy="247.4" r="18.3"/>
	<path class="st11" d="M502.9,250c0-3.6,2.9-6.5,6.5-6.5c1,0,1.9,0.2,2.8,0.6c-1.1-1.9-3.2-3.2-5.6-3.2c-3.6,0-6.5,2.9-6.5,6.5
		c0,2.6,1.5,4.8,3.7,5.9C503.2,252.3,502.9,251.2,502.9,250z"/>
</g>
<g id="Body">
	<polygon class="st10" points="575.5,891.6 596.5,891.6 653.5,549.6 586.5,549.6 	"/>
	<path class="st13" d="M656.4,549.6h-164c0,0,17.8-46.2,18.5-66.9S491,372.3,491,372.3c0-17.5,10.8-31.7,24.2-31.7h103.5
		c13.4,0,24.2,14.2,24.2,31.7c0,0-6.2,83.6-5.1,106.3C638.9,501.3,656.4,549.6,656.4,549.6z"/>
	<polygon class="st10" points="517.4,891.6 496.4,891.6 543.9,549.6 604.9,549.6 	"/>
	<path class="st13" d="M638,745.3H498.1c0,0-5.9-49.8-7.1-90.3c-1.2-40.4,1.4-105.4,1.4-105.4h163.6c0,0,3.5,45.8-2.5,105.4
		C648.8,701.6,638,745.3,638,745.3z"/>
	<path class="st14" d="M492.9,567.1c0,0,58.3,2.1,89.8,2c31.5-0.2,71.8-3.2,71.8-3.2l1.5-16.2c0,0-33.9,4.9-73.3,4.4
		c-39.4-0.5-90.3-4.4-90.3-4.4L492.9,567.1z"/>
	<polygon class="st10" points="547.2,340.6 551.9,384.1 595.1,384.1 598.4,340.6 	"/>
	<path class="st15" d="M551.9,374.6c0,0,5.8,9.5,20.8,9.5c14.9,0,24.7-9.5,24.7-9.5l-14.6,63.8L551.9,374.6z"/>
	<path class="st3" d="M553.7,431.8h-19.8c-3.7,0-6.7-3-6.7-6.7v-4.3h33.3v4.3C560.4,428.8,557.4,431.8,553.7,431.8z"/>
	<circle class="st14" cx="583.7" cy="472.3" r="4.6"/>
	<circle class="st14" cx="583.7" cy="503.3" r="4.6"/>
	<polygon class="st14" points="583.9,517.7 578.1,554.2 587.4,554.2 	"/>
	<path class="st10" d="M517.8,890.7l10,44.8c0,0-1,14.9-12.6,14.9c-11.7,0-13.9-11.3-15.9-21.4c-1.9-10-2.5-38.3-2.5-38.3H517.8z"/>
	<path class="st16" d="M492.3,901.1c0.1,1.2-3.2,35.3-1.3,35.3c2.9,0,5.9,0,5.9,0s-3.5-31.4-2.3-35.3S492.3,901.1,492.3,901.1z"/>
	<path class="st17" d="M525.7,926.1c-3.9-2.7-5.7-2.5-11.5-1.4c-5.8,1.1-10.3,4.3-13.4,6.3s-1.5-11.3-1.8-22.3
		c-0.3-11-2.1-17.9-2.1-17.9l-0.4-3.8c0,0-5.5,2.7-4.5,10.8c1,8.1,3.2,30.5,2.9,40.2c-0.3,9.7,13.9,14.5,26.2,14.8
		c12.3,0.3,11.7-3.2,11.1-9.5C531.4,937.1,529.6,928.8,525.7,926.1z"/>
	<path class="st10" d="M597.6,890.7l10,44.8c0,0-1,14.9-12.6,14.9c-11.7,0-13.9-11.3-15.9-21.4c-1.9-10-2.5-38.3-2.5-38.3H597.6z"/>
	<path class="st16" d="M572,901.1c0.1,1.2-3.2,35.3-1.3,35.3c2.9,0,5.9,0,5.9,0s-3.5-31.4-2.3-35.3C575.5,897.3,572,901.1,572,901.1
		z"/>
	<path class="st17" d="M605.5,926.1c-3.9-2.7-5.7-2.5-11.5-1.4c-5.8,1.1-10.3,4.3-13.4,6.3c-3.1,1.9-1.5-11.3-1.8-22.3
		s-2.1-17.9-2.1-17.9l-0.4-3.8c0,0-5.5,2.7-4.5,10.8c1,8.1,3.2,30.5,2.9,40.2c-0.3,9.7,13.9,14.5,26.2,14.8
		c12.3,0.3,11.7-3.2,11.1-9.5C611.2,937.1,609.4,928.8,605.5,926.1z"/>
</g>
<g id="Left_arm">
	<path class="st13" d="M528.7,346.5l1.3,1.5c6.2,7.4,5.3,18.4-2.1,24.6l-87.5,89.9c-7.4,6.2-18.4,5.3-24.6-2.1l-1.3-1.5
		c-6.2-7.4-5.3-18.4,2.1-24.6l87.5-89.9C511.5,338.2,522.5,339.1,528.7,346.5z"/>
	<path class="st13" d="M446.8,529.8c-21.5-26.4-33.8-70.7-33.8-70.7c-3.9-12.9-1.8-19.5,6.4-25.5l0,0c8.2-6,19.8-4.2,25.8,4
		c0,0,8.3,31.7,18.2,51.9c6.9,13.9,26.2,35,26.2,35l-12.1,31.7C477.5,556.3,458.5,544.3,446.8,529.8z"/>
	<path class="st10" d="M489.1,526.6c0,0,3.9,2.8,7.1,0c3.1-2.8,9.8-9.8,16.1-10.2s13.4-0.4,16.5,0c4,0.5,2.6,7.7-5.3,7.4
		c-7.9-0.4-12.8,0.7-16.1,3.9c0,0,13.4-0.2,19.8,2.1c8.2,2.9,4.6,10.3-0.9,8.3c-5.5-2-16-2.9-20.4-2.8c0,0,10.8,1.9,17.1,6.4
		c6.2,4.5,2.3,9.9-3.7,7.1c-6.8-3.2-14.2-6.7-17.3-4.7c0,0,8.1,5.8,12.1,8.5c3.9,2.6,0.7,8.6-5,4.7c-5.4-3.7-7.6-4.7-10.6-6.9
		c-2.5-1.8-3.9,4.8-12.3,6.9c-4.6,1.2-7.9-2.9-7.9-2.9L489.1,526.6z"/>
</g>
<g id="Right_arm">
	<path class="st13" d="M721,466.1L721,466.1c7,7.4,18.7,7.7,26.1,0.7l67.6-64L789.3,376l-67.6,64C714.3,447,714,458.7,721,466.1z"/>
	<path class="st13" d="M611.8,346.6L611.8,346.6c-6.7,7.6-6,19.3,1.6,26l102.9,91c7.6,6.7,19.3,6,26-1.6l0,0c6.7-7.6,6-19.3-1.6-26
		l-102.9-91C630.2,338.2,618.6,338.9,611.8,346.6z"/>
	<g>
		<path class="st10" d="M789.7,387.5L789.7,387.5c2.9-0.9,4.6-4,3.7-7l-7.6-24.4c-0.9-2.9-4-4.6-7-3.7l0,0c-2.9,0.9-4.6,4-3.7,7
			l7.6,24.4C783.7,386.7,786.8,388.4,789.7,387.5z"/>
		<path class="st10" d="M814.3,407.2l6.6-6.2c2.8-2.7,3-7.1,0.3-9.9l-20.9-22.3c-2.7-2.8-7.1-3-9.9-0.3l-6.6,6.2
			c-3,2.8-3.2,7.6-0.4,10.6l20.2,21.7C806.5,409.9,811.3,410.1,814.3,407.2z"/>
		<path class="st10" d="M787.1,379.2L787.1,379.2c2.1,2.3,5.6,2.4,7.9,0.3l37.9-35.2c2.3-2.1,2.4-5.6,0.3-7.9l0,0
			c-2.1-2.3-5.6-2.4-7.9-0.3l-37.9,35.2C785.1,373.4,785,376.9,787.1,379.2z"/>
		<path class="st10" d="M798.4,383.9L798.4,383.9c2.1,2.3,5.6,2.4,7.9,0.3l18.7-17.5c2.2-2.1,2.4-5.6,0.3-7.9l0,0
			c-2.1-2.3-5.6-2.4-7.9-0.3L798.7,376C796.4,378.1,796.3,381.7,798.4,383.9z"/>
		<path class="st10" d="M803.9,394L803.9,394c2.1,2.3,5.6,2.4,7.9,0.3l18.7-17.5c2.3-2.1,2.4-5.6,0.3-7.9l0,0
			c-2.1-2.3-5.6-2.4-7.9-0.3l-18.7,17.5C802,388.2,801.8,391.7,803.9,394z"/>
		<path class="st10" d="M808.6,404.9L808.6,404.9c2.1,2.3,5.6,2.4,7.9,0.3l18.7-17.5c2.3-2.1,2.4-5.6,0.3-7.9v0
			c-2.1-2.2-5.6-2.4-7.9-0.3L808.8,397C806.6,399.1,806.5,402.7,808.6,404.9z"/>
	</g>
</g>
<g id="Collar">
	<polygon class="st2" points="598.4,340.6 582.8,438.3 617.3,375.1 609.3,367.3 619.5,356.7 	"/>
	<polygon class="st2" points="547.2,340.6 582.8,438.3 528.3,375.1 536.3,367.3 526.1,356.7 	"/>
</g>
<g id="Mouth">
	<path class="st18" d="M581.7,284.6c0,9.3,7.5,16.8,16.8,16.8l0,0c9.3,0,16.8-7.5,16.8-16.8"/>
</g>
<g id="Nose">
	<path class="st11" d="M594.4,256.1v13.8c0,0.6,0.8,1.1,1.4,1.1h8.2c2.2,0,3.4-2.6,2-4.3l-9.5-11.4
		C595.9,254.5,594.4,255,594.4,256.1z"/>
</g>
<g id="Eyes">
	<ellipse class="st0" cx="568.5" cy="237.9" rx="4.8" ry="8.5"/>
	<ellipse class="st0" cx="629.6" cy="237.9" rx="4.8" ry="8.5"/>
</g>
</svg>
