<?xml version="1.0" encoding="utf-8"?>
<!-- Generator: Adobe Illustrator 19.2.0, SVG Export Plug-In . SVG Version: 6.00 Build 0)  -->
<svg version="1.1" id="Layer_1" xmlns="http://www.w3.org/2000/svg" xmlns:xlink="http://www.w3.org/1999/xlink" x="0px" y="0px"
	 viewBox="0 0 1920 1080" style="enable-background:new 0 0 1920 1080;" xml:space="preserve">
<style type="text/css">
	.st0{fill:#E6E6E6;}
	.st1{fill:#666666;}
	.st2{fill:#333333;}
	.st3{fill:none;stroke:#E6E6E6;stroke-width:3;stroke-miterlimit:10;}
	.st4{fill:#BDCCD4;}
	.st5{fill:#A8BDC6;}
	.st6{fill:none;stroke:#7F99A5;stroke-miterlimit:10;}
	.st7{fill:#FFC06C;}
	.st8{fill:#C1272D;}
	.st9{fill:#FFF0B3;}
	.st10{fill:#603813;}
	.st11{fill:#999999;}
	.st12{fill:#C13A3A;}
	.st13{fill:#F2F2F2;}
	.st14{fill:#E24B4B;}
	.st15{fill:#BCA184;}
	.st16{fill:#C7B299;}
	.st17{fill:#CCCCCC;}
	.st18{fill:#F69B76;}
	.st19{fill:#E88D6D;}
	.st20{fill:#754C24;}
	.st21{fill:#4D4D4D;}
	.st22{fill:#8C6239;}
	.st23{fill:#F8C09D;}
	.st24{fill:#F6AE8D;}
	.st25{fill:#EF937E;}
	.st26{fill:none;stroke:#EF937E;stroke-width:4.5315;stroke-linecap:round;stroke-miterlimit:10;}
</style>
<g>
	<g>
		<path class="st0" d="M1358.8,540.8c0,0,4.5-13.5,4.5-21.5s-10.9-7.6-10.9,0s4.5,21.5,4.5,21.5
			C1357.1,542.2,1358.5,542.2,1358.8,540.8z"/>
		<path class="st1" d="M1357.8,444.7L1357.8,444.7c1.5,0,2.7-1.2,2.7-2.7v-8.8c0-1.5-1.2-2.7-2.7-2.7h0c-1.5,0-2.7,1.2-2.7,2.7v8.8
			C1355.1,443.5,1356.3,444.7,1357.8,444.7z"/>
		
			<rect x="1352.3" y="438.1" transform="matrix(-1 4.506960e-11 -4.506960e-11 -1 2715.5833 957.3433)" class="st2" width="10.9" height="81.2"/>
		<polyline class="st3" points="1363.2,446.6 1348.9,446.6 1348.9,484.5 		"/>
		<path class="st1" d="M1357.4,487.7L1357.4,487.7c1.3,0,2.4-1.1,2.4-2.4v-28.8c0-1.3-1.1-2.4-2.4-2.4l0,0c-1.3,0-2.4,1.1-2.4,2.4
			v28.8C1355.1,486.7,1356.1,487.7,1357.4,487.7z"/>
		<path class="st2" d="M1359.2,539.4c-0.3,0.8-0.4,1.3-0.4,1.3c-0.3,1.5-1.7,1.5-2,0c0,0-0.2-0.5-0.4-1.3H1359.2z"/>
	</g>
	<g>
		<rect x="1370.5" y="412.6" class="st4" width="27.4" height="133.4"/>
		<rect x="1389.3" y="412.6" class="st5" width="8.5" height="133.4"/>
		<line class="st6" x1="1374.1" y1="420.1" x2="1383.1" y2="420.1"/>
		<line class="st6" x1="1374.1" y1="458.3" x2="1383.1" y2="458.3"/>
		<line class="st6" x1="1374.1" y1="439.2" x2="1380.4" y2="439.2"/>
		<line class="st6" x1="1374.1" y1="423.9" x2="1377.7" y2="423.9"/>
		<line class="st6" x1="1374.1" y1="427.7" x2="1377.7" y2="427.7"/>
		<line class="st6" x1="1374.1" y1="431.5" x2="1377.7" y2="431.5"/>
		<line class="st6" x1="1374.1" y1="435.4" x2="1377.7" y2="435.4"/>
		<line class="st6" x1="1374.1" y1="443" x2="1377.7" y2="443"/>
		<line class="st6" x1="1374.1" y1="446.8" x2="1377.7" y2="446.8"/>
		<line class="st6" x1="1374.1" y1="450.6" x2="1377.7" y2="450.6"/>
		<line class="st6" x1="1374.1" y1="454.5" x2="1377.7" y2="454.5"/>
		<line class="st6" x1="1374.1" y1="496.9" x2="1383.1" y2="496.9"/>
		<line class="st6" x1="1374.1" y1="477.8" x2="1380.4" y2="477.8"/>
		<line class="st6" x1="1374.1" y1="462.5" x2="1377.7" y2="462.5"/>
		<line class="st6" x1="1374.1" y1="466.3" x2="1377.7" y2="466.3"/>
		<line class="st6" x1="1374.1" y1="470.1" x2="1377.7" y2="470.1"/>
		<line class="st6" x1="1374.1" y1="474" x2="1377.7" y2="474"/>
		<line class="st6" x1="1374.1" y1="481.6" x2="1377.7" y2="481.6"/>
		<line class="st6" x1="1374.1" y1="485.4" x2="1377.7" y2="485.4"/>
		<line class="st6" x1="1374.1" y1="489.2" x2="1377.7" y2="489.2"/>
		<line class="st6" x1="1374.1" y1="493.1" x2="1377.7" y2="493.1"/>
		<line class="st6" x1="1374.1" y1="535.5" x2="1383.1" y2="535.5"/>
		<line class="st6" x1="1374.1" y1="516.4" x2="1380.4" y2="516.4"/>
		<line class="st6" x1="1374.1" y1="501.1" x2="1377.7" y2="501.1"/>
		<line class="st6" x1="1374.1" y1="504.9" x2="1377.7" y2="504.9"/>
		<line class="st6" x1="1374.1" y1="508.7" x2="1377.7" y2="508.7"/>
		<line class="st6" x1="1374.1" y1="512.6" x2="1377.7" y2="512.6"/>
		<line class="st6" x1="1374.1" y1="520.2" x2="1377.7" y2="520.2"/>
		<line class="st6" x1="1374.1" y1="524" x2="1377.7" y2="524"/>
		<line class="st6" x1="1374.1" y1="527.8" x2="1377.7" y2="527.8"/>
		<line class="st6" x1="1374.1" y1="531.7" x2="1377.7" y2="531.7"/>
	</g>
	<g>
		<rect x="1395.5" y="440.8" class="st7" width="11.9" height="95.8"/>
		<rect x="1395.5" y="431.8" class="st0" width="12.3" height="9"/>
		<path class="st8" d="M1407.8,431.8h-12.3v-4c0-2.2,0-4,2.5-4h7.1c2.7,0,2.7,2,2.7,4.4V431.8z"/>
		<polygon class="st9" points="1401.6,552 1395.5,536.6 1407.8,536.6 		"/>
		<polygon class="st10" points="1404.7,544.3 1398.5,544.3 1401.6,552 		"/>
	</g>
	<path class="st11" d="M1413.3,578.9H1339v-88.6c0-2.8,2.3-5.1,5.1-5.1h64.1c2.8,0,5.1,2.3,5.1,5.1V578.9z"/>
	<rect x="1339" y="499.8" class="st1" width="74.3" height="8"/>
	<rect x="1339" y="518.1" class="st1" width="74.3" height="8"/>
</g>
<g>
	<polygon class="st12" points="482.3,561.1 491.2,558.3 451.4,396.2 584.6,304.3 579.3,296.6 440.5,392.4 	"/>
	<polygon class="st12" points="500.3,568.1 509.2,565.3 469.4,403.2 602.6,311.3 597.3,303.6 458.5,399.4 	"/>
	<path class="st12" d="M566.5,278L566.5,278c-6.2,10.1-3.1,23.4,7,29.6l18.3,11.3l22.6-36.6L596.1,271
		C586,264.8,572.7,267.9,566.5,278z"/>
	
		<ellipse transform="matrix(0.525 -0.8511 0.8511 0.525 26.2966 702.8839)" class="st13" cx="642.9" cy="327.9" rx="17.7" ry="17.7"/>
	<polygon class="st14" points="616.4,380.6 616.1,380.4 591.8,318.9 614.4,282.3 679.9,276.9 680.2,277.1 	"/>
	<circle class="st14" cx="457.5" cy="397.1" r="18.3"/>
	<circle class="st12" cx="457.5" cy="397.1" r="8.3"/>
	<path class="st14" d="M454.5,578.9h81.6v-7.4c0-9.2-7.4-16.6-16.6-16.6h-48.4c-9.2,0-16.6,7.4-16.6,16.6V578.9z"/>
</g>
<g>
	<path class="st15" d="M631.2,557.6c-10.4,0-18.8-8.5-18.8-18.8c0-10.4,8.5-18.8,18.8-18.8c10.4,0,18.8,8.5,18.8,18.8
		C650.1,549.1,641.6,557.6,631.2,557.6z M631.2,527.8c-6,0-10.9,4.9-10.9,10.9s4.9,10.9,10.9,10.9s10.9-4.9,10.9-10.9
		S637.3,527.8,631.2,527.8z"/>
	<path class="st16" d="M613.9,580h-27.3c-9.1,0-16.6-7.4-16.6-16.6v-47.2c0-1.8,1.4-3.2,3.2-3.2h53.9c1.8,0,3.2,1.4,3.2,3.2v47.2
		C630.5,572.6,623.1,580,613.9,580z"/>
	<path class="st15" d="M627.2,513h-11.4c1.8,0,3.2,1.4,3.2,3.2v47.2c0,9.1-7.3,16.6-16.5,16.6h11.4c9.1,0,17.1-7.4,17.1-16.6v-47.2
		C631,514.4,629,513,627.2,513z"/>
	<path class="st0" d="M586.6,504.6L586.6,504.6c-1.8,0-3.2-1.4-3.2-3.2v-17.1c0-1.8,1.4-3.2,3.2-3.2l0,0c1.8,0,3.2,1.4,3.2,3.2v17.1
		C589.8,503.2,588.4,504.6,586.6,504.6z"/>
	<path class="st0" d="M601,504.6L601,504.6c-1.8,0-3.2-1.4-3.2-3.2v-32.6c0-1.8,1.4-3.2,3.2-3.2l0,0c1.8,0,3.2,1.4,3.2,3.2v32.6
		C604.1,503.2,602.7,504.6,601,504.6z"/>
	<path class="st0" d="M615.3,504.6L615.3,504.6c-1.8,0-3.2-1.4-3.2-3.2V478c0-1.8,1.4-3.2,3.2-3.2l0,0c1.8,0,3.2,1.4,3.2,3.2v23.4
		C618.4,503.2,617,504.6,615.3,504.6z"/>
</g>
<g>
	<path class="st14" d="M918.6,698.8H737.3c-10.9,0-19.7-8.8-19.7-19.7v-79.5c0-10.9,8.8-19.7,19.7-19.7h181.3
		c10.9,0,19.7,8.8,19.7,19.7v79.5C938.2,690,929.4,698.8,918.6,698.8z"/>
	<path class="st14" d="M918.6,552.5H737.3c-10.9,0-19.7-8.8-19.7-19.7v-79.5c0-10.9,8.8-19.7,19.7-19.7h181.3
		c10.9,0,19.7,8.8,19.7,19.7v79.5C938.2,543.7,929.4,552.5,918.6,552.5z"/>
	<rect x="804.2" y="709.7" class="st2" width="47.4" height="17.1"/>
	<path class="st2" d="M910.8,711.4H745.1c-3.5,0-6.3-2.8-6.3-6.3l0,0c0-3.5,2.8-6.3,6.3-6.3h165.7c3.5,0,6.3,2.8,6.3,6.3l0,0
		C917,708.6,914.2,711.4,910.8,711.4z"/>
	<rect x="816.3" y="726.8" class="st17" width="23.1" height="73.7"/>
	<path class="st17" d="M737.4,814.8v50.3h17.2v-33c0-7.9,6.4-14.3,14.3-14.3H887c7.9,0,14.3,6.4,14.3,14.3v33h17.2v-50.3
		c0-7.9-6.4-14.3-14.3-14.3H751.7C743.8,800.5,737.4,806.9,737.4,814.8z"/>
	<rect x="804.2" y="783.4" class="st2" width="47.4" height="17.1"/>
	<path class="st17" d="M737.4,814.8v50.3h17.2v-33c0-7.9,6.4-14.3,14.3-14.3H887c7.9,0,14.3,6.4,14.3,14.3v33h17.2v-50.3
		c0-7.9-6.4-14.3-14.3-14.3H751.7C743.8,800.5,737.4,806.9,737.4,814.8z"/>
	<path class="st17" d="M782.4,814.8v50.3h17.2v-33c0-7.9,6.4-14.3,14.3-14.3H842c7.9,0,14.3,6.4,14.3,14.3v33h17.2v-50.3
		c0-7.9-6.4-14.3-14.3-14.3h-62.4C788.8,800.5,782.4,806.9,782.4,814.8z"/>
	<circle class="st2" cx="745.4" cy="865.1" r="15.2"/>
	<circle class="st2" cx="791.7" cy="865.1" r="15.2"/>
	<circle class="st2" cx="864.6" cy="865.1" r="15.2"/>
	<circle class="st2" cx="910.9" cy="865.1" r="15.2"/>
</g>
<rect x="764.9" y="619.1" class="st2" width="162.7" height="29.7"/>
<path class="st18" d="M788.3,411.5h84.1c18.7,0,33.9,15.2,33.9,33.9v173.6h-152V445.5C754.4,426.7,769.5,411.5,788.3,411.5z"/>
<path class="st19" d="M750.9,462.5l18.7-5.1c0,0,4.7,40.8,28.6,60.9c10.4,8.8,21.8,7.7,34.7,7c31.8-1.7,73.3-15,73.3-15l-0.2,68.9
	l-151.6-0.2L750.9,462.5z"/>
<path class="st18" d="M739.3,423.7c0,0,20.6-11.7,49-12.2c18.1-0.3-27.7,27.7-27.7,27.7L739.3,423.7z"/>
<path class="st18" d="M873.8,412.1c0,0,36.4-2.8,45.9,13.2c8.6,14.3-17.8,22.3-17.8,22.3L873.8,412.1z"/>
<path class="st20" d="M982.1,841l-10.2,39h85.9c0,0-3-18-22.9-21.5c-19.8-3.6-36.6,7.7-36.6,7.7l1-25.2H982.1z"/>
<path class="st20" d="M900.1,841l-10.2,39h85.9c0,0-3-18-22.9-21.5c-19.8-3.6-36.6,7.7-36.6,7.7l1-25.2H900.1z"/>
<path class="st2" d="M977.8,639.5L847,625.8l-8.8,28.6c-3.3,10.9,2.7,22.4,13.6,25.7l118.5,7.7l-3.9,156.1h46.5l5.6-158.9
	c-1.6-22.7,1.1-34.8-25.9-43.4L977.8,639.5z"/>
<path class="st21" d="M903.2,639.5l-138.6-13.7l-1.1,28.6c-0.9,14.1,2.7,22.4,13.6,25.7l118.5,7.7l-3.9,156.1h46.5l5.6-158.9
	c-1.6-22.7,1.1-34.8-25.9-43.4L903.2,639.5z"/>
<path class="st22" d="M1467.1,612H454.9c-9.1,0-16.5-7.4-16.5-16.5l0,0c0-9.1,7.4-16.5,16.5-16.5h1012.3c9.1,0,16.5,7.4,16.5,16.5
	l0,0C1483.6,604.7,1476.2,612,1467.1,612z"/>
<rect x="1232.4" y="893.1" class="st20" width="61.6" height="14.8"/>
<rect x="1402.8" y="893.1" class="st20" width="61.6" height="14.8"/>
<rect x="1232" y="612" transform="matrix(-1 -1.224647e-16 1.224647e-16 -1 2696.3945 1505.1725)" class="st22" width="232.5" height="281.1"/>
<rect x="454.8" y="893.1" class="st20" width="61.6" height="14.8"/>
<rect x="625.2" y="893.1" class="st20" width="61.6" height="14.8"/>
<rect x="454.3" y="612" transform="matrix(-1 -1.224647e-16 1.224647e-16 -1 1141.1381 1505.1725)" class="st22" width="232.5" height="281.1"/>
<rect x="454.3" y="612" class="st20" width="1010.1" height="14.8"/>
<path class="st18" d="M930.4,575.9L930.4,575.9c-10.1,1.5-19.5-5.4-21-15.4l-18.5-120.7c-1.5-10.1,5.4-19.5,15.4-21v0
	c10.1-1.5,18.9,11,22.1,25.7l17.4,110.4C947.4,565,940.5,574.4,930.4,575.9z"/>
<path class="st18" d="M867.4,564.3L867.4,564.3c-1.7-10,5-19.6,15-21.3l102.3-17.6l6.3,36.4l-102.3,17.6
	C878.7,581.1,869.1,574.3,867.4,564.3z"/>
<path class="st23" d="M990.1,557.6c0,0,8.7,0,19.9,1.7c11.2,1.7,12.5,1.9,16,1.9c3.5,0,6.2-6.8-2.5-8.8c-8.7-2-6.8-3.6-2.3-3.4
	c4.6,0.2,9.5,1.4,14.5,6.1c5,4.7,11.6,6.5,12.2,1.2s-4.4-7.3-4.4-7.3s6.2,1.1,6.4-3.5c0.2-4.6-5-9.1-8.1-11.2c0,0,1.9-5.2-4.4-6.8
	c-6.2-1.7-16.6-6.2-23.7-7.1c-7.1-0.8-27.6,13.7-27.6,13.7L990.1,557.6z"/>
<path class="st18" d="M769.2,578.9L769.2,578.9c-10.1,1.5-19.5-5.4-21-15.4l-18.5-120.7c-1.5-10.1,5.4-19.5,15.4-21h0
	c10.1-1.5,19.5,5.4,21,15.4l18.5,120.7C786.2,568,779.3,577.4,769.2,578.9z"/>
<path class="st18" d="M751.1,564.3L751.1,564.3c-1.7-10,5-19.6,15-21.3l102.3-17.6l6.3,36.4l-102.3,17.6
	C762.4,581.1,752.8,574.3,751.1,564.3z"/>
<path class="st23" d="M873.8,557.6c0,0,8.7,0,19.9,1.7c11.2,1.7,12.5,1.9,16,1.9c3.5,0,6.2-6.8-2.5-8.8c-8.7-2-6.8-3.6-2.3-3.4
	c4.6,0.2,9.5,1.4,14.5,6.1c5,4.7,11.6,6.5,12.2,1.2c0.6-5.4-4.4-7.3-4.4-7.3s6.2,1.1,6.4-3.5c0.2-4.6-5-9.1-8.1-11.2
	c0,0,1.9-5.2-4.4-6.8c-6.2-1.7-16.6-6.2-23.7-7.1c-7.1-0.8-27.6,13.7-27.6,13.7L873.8,557.6z"/>
<g>
	<path class="st2" d="M1222.5,579.3h-126.8c-3.8,0-6.9-3.1-6.9-6.9v-0.8c0-3.8,3.1-6.9,6.9-6.9h126.8c3.8,0,6.9,3.1,6.9,6.9v0.8
		C1229.4,576.2,1226.3,579.3,1222.5,579.3z"/>
	<path class="st2" d="M1305.3,532.3h-292.5c-4.5,0-8.1-3.6-8.1-8.1V346.1c0-4.5,3.6-8.1,8.1-8.1h292.5c4.5,0,8.1,3.6,8.1,8.1v178.1
		C1313.4,528.6,1309.8,532.3,1305.3,532.3z"/>
	<path class="st21" d="M1014,531.8V353.7c0-4.5,3.7-7.7,8.1-7.7H1314c-0.2-4-3.7-8-8.1-8h-292.5c-4.5,0-8.5,3.6-8.5,8.1v178.1
		c0,4.5,4,7.8,8.5,7.8h0.6C1014.1,532,1014,532,1014,531.8z"/>
	<rect x="1124.3" y="495" class="st21" width="69.7" height="69.7"/>
</g>
<path class="st2" d="M1066.3,579.3H879.1c-3.8,0-6.9-3.1-6.9-6.9v-0.9c0-3.8,3.1-6.9,6.9-6.9h187.2c3.8,0,6.9,3.1,6.9,6.9v0.9
	C1073.1,576.2,1070,579.3,1066.3,579.3z"/>
<path class="st23" d="M863,415.1c0,13.4-10.9,24.5-24.3,24.5h0h-0.2c-13.4,0-24.5-11.1-24.5-24.5v-21.5h49V415.1z"/>
<path class="st24" d="M814,409.5c9.5,4.1,19.4,6.3,28.9,6.3c6.6,0,13.4-1.1,20.1-3.1v-15.5h-49V409.5z"/>
<path class="st23" d="M842.9,404.6c-34.9,0-76.8-30.5-76.8-73.2V202.8h154.1v128.5C920.1,374.1,895.8,404.6,842.9,404.6z"/>
<rect x="747.9" y="259.9" class="st2" width="36.3" height="39"/>
<circle class="st23" cx="765.6" cy="296.7" r="21.9"/>
<path class="st25" d="M761.2,299.8c0-4.3,3.5-7.8,7.8-7.8c1.2,0,2.3,0.3,3.3,0.7c-1.4-2.3-3.8-3.8-6.7-3.8c-4.3,0-7.8,3.5-7.8,7.8
	c0,3.1,1.8,5.8,4.5,7C761.6,302.6,761.2,301.2,761.2,299.8z"/>
<path class="st2" d="M778.7,198.8v0.4h-9.6c-11.7,0-21.2,9.3-21.2,20.9l0-0.2v29.9v24.6h36.3v-11.1c0-7.4,5.7-13.3,13.2-13.3h107.8
	c14.1,0,25.6-11.6,25.6-25.7v-51.3H804.5C790.4,172.9,778.7,184.7,778.7,198.8z"/>
<path class="st26" d="M851.4,334.4c0,13.6,11.1,24.7,24.7,24.7h0c13.6,0,24.7-11.1,24.7-24.7"/>
<path class="st25" d="M875.9,308.4v15.9c0,0.7,0.9,1.3,1.6,1.3h9.4c2.6,0,4-3,2.3-4.9l-10.9-13C877.6,306.7,875.9,307.2,875.9,308.4
	z"/>
<ellipse class="st2" cx="842" cy="299.3" rx="5" ry="8.8"/>
<ellipse class="st2" cx="905.5" cy="299.3" rx="5" ry="8.8"/>
</svg>
